<svg width="180" height="48" viewBox="0 0 180 48" fill="none" xmlns="http://www.w3.org/2000/svg">
  <rect width="180" height="48" rx="16" fill="url(#bg)"/>
  <path d="M32 12h16c6.627 0 12 5.373 12 12s-5.373 12-12 12H32v-6.4h15.2c3.314 0 6-2.686 6-6 0-3.314-2.686-6-6-6H32V12Z" fill="#1D2431"/>
  <path d="M72.268 31.6c0 2.208-1.756 3.968-3.964 3.968-2.22 0-3.988-1.76-3.988-3.968 0-2.22 1.768-3.988 3.988-3.988 2.208 0 3.964 1.768 3.964 3.988Z" fill="#1D2431"/>
  <text x="78" y="30" font-family="'Work Sans', 'Segoe UI', sans-serif" font-size="20" font-weight="600" letter-spacing="0.18em" fill="#F5D06F">SEDULUR</text>
  <text x="78" y="41" font-family="'Work Sans', 'Segoe UI', sans-serif" font-size="11" letter-spacing="0.36em" fill="#B0BDCF">BLOG</text>
  <defs>
    <linearGradient id="bg" x1="0" y1="0" x2="1" y2="1">
      <stop offset="0" stop-color="#2A3141"/>
      <stop offset="1" stop-color="#1B222F"/>
    </linearGradient>
  </defs>
</svg>
