<?xml version="1.0" encoding="UTF-8"?>
<svg id="Layer_2" data-name="Layer 2" xmlns="http://www.w3.org/2000/svg" viewBox="0 0 84.03 75.86">
  <defs>
    <style>
      .cls-1 {
        fill: #203b58;
      }

      .cls-2 {
        fill: #1f3a58;
      }

      .cls-3 {
        fill: #1f3b58;
      }

      .cls-4 {
        fill: #203b59;
      }
    </style>
  </defs>
  <g id="Layer_1-2" data-name="Layer 1">
    <g>
      <path class="cls-4" d="M51.2,37.69l-9.47-21.25-9.37,22.08-8.06,1.46L40.77,1.42c-2.88-.22-5.87.36-8.65,1.11C12.86,7.75,1.25,27.96,6.33,47.33l-.97.7c-.51-1.97-.95-4-1.15-6.03C1.1,9.75,36.94-11.71,63.61,6.91c9.93,6.93,15.97,18.46,16.21,30.59h-1.15c0-19.24-16.29-36.08-35.6-36.18l15.5,36.37h-7.37Z"/>
      <path class="cls-1" d="M84.03,39.61c-.77,1.26-1.84,1.6-3.25,1.72l1.72.19c-.33.81-1.38.47-1.91,1.05l1.15.19-1.91.67.96.57-2.49.77,1.15.28-2.4,1.43c-13.39.13-26.82-.23-40.18.21-10.91.36-29.58,1.22-35.62,12.05l-1.24,2.68c2.04-13.91,18.62-18.69,30.56-20.26,16.93-2.22,34.94-.62,52.05-1.36.49-.02.94-.23,1.43-.2Z"/>
      <path class="cls-2" d="M76.57,68.13h-11.58c-.17,0-2.29,1.7-2.79,1.99-12.12,7.26-26.99,7.76-39.36.72-.71-.4-3.75-2.71-3.99-2.71H7.27l3.62-1.84c1.09-.75,2.01-1.72,2.7-2.85-1.32-1.75-2.76-3.41-3.92-5.28-.31-.5-1.52-2.42-1.62-2.81-.13-.53.62-1.02.92-.81.11.08.97,1.98,1.2,2.35,1.2,1.94,2.54,3.81,4.08,5.49,2.07-3.74,3.45-7.85,5.34-11.69.47-.37,7.63-1.37,7.96-1.13l-7.57,17.79c-.07.27.23.42.4.58.91.84,3.33,2.19,4.49,2.78,12.51,6.42,27.73,5.1,39.07-3.09l-7.86-18.84h7.47l6.03,13.59c2.7-3.12,4.9-6.53,6.51-10.34.28-.67.81-2.79,1.07-3.14.27-.37.76-.28,1.13-.49-1.11,5.57-4.39,10.59-8.01,14.86.67,1.54,2.06,2.68,3.48,3.55l2.81,1.31Z"/>
      <polygon class="cls-3" points="38.09 35.21 42.01 26.78 45.75 35.21 38.09 35.21"/>
    </g>
  </g>
</svg>